{"title":"UK Real Escort - Tabitha Manchester","uid":9181525,"size":965815237,"categoryP":"porn","categoryS":"movie_clips","magnet":"?xt=urn:btih:78c61a452c134ec8323b269117759a2a4c5b27f2&amp;dn=UK+Real+Escort+-+Tabitha+Manchester&amp;tr=udp%3A%2F%2Ftracker.openbittorrent.com%3A80&amp;tr=udp%3A%2F%2Fopen.demonii.com%3A1337&amp;tr=udp%3A%2F%2Ftracker.coppersurfer.tk%3A6969&amp;tr=udp%3A%2F%2Fexodus.desync.com%3A6969","seeders":1,"leechers":3,"uploader":null,"files":4,"time":1384232854,"description":" &lt;a href=&quot;http://bayimg.com/OAcHeAaFE&quot; rel=&quot;nofollow&quot; target=&quot;_NEW&quot;&gt;http://bayimg.com/OAcHeAaFE&lt;/a&gt;\n\n\nReal escorts in action\nWelcome to Lukey\nHi! I'm Lukey. I have a passion for real British escorts and for\nfilming the services (wink) they provide to clients like you and me.\nEscorts are paid for their companionship only (if you get my drift)\nand I just happen to have a camera handy to capture that\ncompanionship in action. Have fun!\n\nFormat : Windows Media\nFile size : 916 MiB\nDuration : 20mn 48s\nOverall bit rate : 6 152 Kbps\nMaximum Overall bit rate : 6 096 Kbps\nTrack name/Position : 0\nRecorded date : 0\nEncoded date : UTC 1970-01-01 00:00:00.000\n\nVideo\nID : 2\nFormat : WMV2\nCodec ID : WMV2\nCodec ID/Info : Windows Media Video 8\nDescription of the codec : wmv2\nDuration : 20mn 48s\nBit rate : 6 000 Kbps\nWidth : 1 280 pixels\nHeight : 720 pixels\nDisplay aspect ratio : 16:9\nFrame rate : 25.000 fps\nBit depth : 8 bits\nBits/(Pixel*Frame) : 0.260\nStream size : 893 MiB (98%)\n\nAudio\nID : 1\nFormat : WMA\nFormat version : Version 2\nCodec ID : 161\nCodec ID/Info : Windows Media Audio\nDescription of the codec : Windows Media Audio V8\nDuration : 20mn 48s\nBit rate : 96.0 Kbps\nChannel(s) : 2 channels\nSampling rate : 44.1 KHz\nBit depth : 16 bits\nStream size : 14.3 MiB (2%)\n","torrent":{"xt":"urn:btih:78c61a452c134ec8323b269117759a2a4c5b27f2","amp;dn":"UK+Real+Escort+-+Tabitha+Manchester","amp;tr":["udp%3A%2F%2Ftracker.openbittorrent.com%3A80","udp%3A%2F%2Fopen.demonii.com%3A1337","udp%3A%2F%2Ftracker.coppersurfer.tk%3A6969","udp%3A%2F%2Fexodus.desync.com%3A6969"],"infoHash":"78c61a452c134ec8323b269117759a2a4c5b27f2","infoHashBuffer":{"type":"Buffer","data":[120,198,26,69,44,19,78,200,50,59,38,145,23,117,154,42,76,91,39,242]},"announce":[],"urlList":[]}}